<svg width="44" height="44" viewBox="0 0 44 44" fill="none" xmlns="http://www.w3.org/2000/svg">
<rect width="44" height="44" rx="5" fill="#EFEFEF"/>
<path fill-rule="evenodd" clip-rule="evenodd" d="M16.3277 18.3474L16.9307 25.5194C16.9747 26.0714 17.4257 26.4854 17.9767 26.4854H17.9807H28.8917H28.8937C29.4147 26.4854 29.8597 26.0974 29.9337 25.5824L30.8837 19.0234C30.9057 18.8674 30.8667 18.7114 30.7717 18.5854C30.6777 18.4584 30.5397 18.3764 30.3837 18.3544C30.1747 18.3624 21.5017 18.3504 16.3277 18.3474ZM17.9747 27.9854C16.6577 27.9854 15.5427 26.9574 15.4357 25.6424L14.5197 14.7484L13.0127 14.4884C12.6037 14.4164 12.3307 14.0294 12.4007 13.6204C12.4727 13.2114 12.8677 12.9454 13.2677 13.0094L15.3477 13.3694C15.6827 13.4284 15.9377 13.7064 15.9667 14.0464L16.2017 16.8474C30.4777 16.8534 30.5237 16.8604 30.5927 16.8684C31.1497 16.9494 31.6397 17.2404 31.9737 17.6884C32.3077 18.1354 32.4477 18.6864 32.3677 19.2384L31.4187 25.7964C31.2397 27.0444 30.1557 27.9854 28.8957 27.9854H28.8907H17.9827H17.9747Z" fill="#020202"/>
<path fill-rule="evenodd" clip-rule="evenodd" d="M27.2876 22.0437H24.5156C24.1006 22.0437 23.7656 21.7077 23.7656 21.2937C23.7656 20.8797 24.1006 20.5437 24.5156 20.5437H27.2876C27.7016 20.5437 28.0376 20.8797 28.0376 21.2937C28.0376 21.7077 27.7016 22.0437 27.2876 22.0437Z" fill="#020202"/>
<path fill-rule="evenodd" clip-rule="evenodd" d="M17.5445 30.7019C17.8455 30.7019 18.0885 30.9449 18.0885 31.2459C18.0885 31.5469 17.8455 31.7909 17.5445 31.7909C17.2425 31.7909 16.9995 31.5469 16.9995 31.2459C16.9995 30.9449 17.2425 30.7019 17.5445 30.7019Z" fill="#020202"/>
<mask id="mask0_48_110" style="mask-type:alpha" maskUnits="userSpaceOnUse" x="16" y="30" width="3" height="2">
<path fill-rule="evenodd" clip-rule="evenodd" d="M16.999 31.2455C16.999 31.5475 17.242 31.7915 17.545 31.7915C17.846 31.7915 18.089 31.5475 18.089 31.2455C18.089 30.9445 17.846 30.7015 17.545 30.7015C17.242 30.7015 16.999 30.9445 16.999 31.2455Z" fill="white"/>
</mask>
<g mask="url(#mask0_48_110)">
<path fill-rule="evenodd" clip-rule="evenodd" d="M12 36.7905H23.089V25.7015H12V36.7905Z" fill="#020202"/>
</g>
<path fill-rule="evenodd" clip-rule="evenodd" d="M17.5435 31.0408C17.4305 31.0408 17.3385 31.1328 17.3385 31.2458C17.3385 31.4728 17.7495 31.4728 17.7495 31.2458C17.7495 31.1328 17.6565 31.0408 17.5435 31.0408ZM17.5435 32.5408C16.8295 32.5408 16.2495 31.9598 16.2495 31.2458C16.2495 30.5318 16.8295 29.9518 17.5435 29.9518C18.2575 29.9518 18.8385 30.5318 18.8385 31.2458C18.8385 31.9598 18.2575 32.5408 17.5435 32.5408Z" fill="#020202"/>
<path fill-rule="evenodd" clip-rule="evenodd" d="M28.8248 30.7019C29.1258 30.7019 29.3698 30.9449 29.3698 31.2459C29.3698 31.5469 29.1258 31.7909 28.8248 31.7909C28.5228 31.7909 28.2798 31.5469 28.2798 31.2459C28.2798 30.9449 28.5228 30.7019 28.8248 30.7019Z" fill="#020202"/>
<mask id="mask1_48_110" style="mask-type:alpha" maskUnits="userSpaceOnUse" x="28" y="30" width="2" height="2">
<path fill-rule="evenodd" clip-rule="evenodd" d="M28.28 31.2455C28.28 31.5475 28.523 31.7915 28.825 31.7915C29.125 31.7915 29.37 31.5475 29.37 31.2455C29.37 30.9445 29.125 30.7015 28.825 30.7015C28.523 30.7015 28.28 30.9445 28.28 31.2455Z" fill="white"/>
</mask>
<g mask="url(#mask1_48_110)">
<path fill-rule="evenodd" clip-rule="evenodd" d="M23.28 36.7905H34.37V25.7015H23.28V36.7905Z" fill="#020202"/>
</g>
<path fill-rule="evenodd" clip-rule="evenodd" d="M28.8238 31.0408C28.7118 31.0408 28.6198 31.1328 28.6198 31.2458C28.6208 31.4748 29.0308 31.4728 29.0298 31.2458C29.0298 31.1328 28.9368 31.0408 28.8238 31.0408ZM28.8238 32.5408C28.1098 32.5408 27.5298 31.9598 27.5298 31.2458C27.5298 30.5318 28.1098 29.9518 28.8238 29.9518C29.5388 29.9518 30.1198 30.5318 30.1198 31.2458C30.1198 31.9598 29.5388 32.5408 28.8238 32.5408Z" fill="#020202"/>
</svg>
