<svg width="24" height="24" viewBox="0 0 24 24" fill="none" xmlns="http://www.w3.org/2000/svg">
<path d="M7.77778 20.5C7.50164 20.5 7.27778 20.2761 7.27778 20V10.3885L4.53884 12.6294C4.34506 12.788 4.06389 12.7787 3.88092 12.6078L4.22222 12.2424C3.88092 12.6078 3.88087 12.6078 3.88082 12.6077L3.88067 12.6076L3.88022 12.6072L3.87873 12.6058L3.87337 12.6007L3.85354 12.582C3.83642 12.5658 3.81164 12.5423 3.78031 12.5122C3.71766 12.452 3.62866 12.3655 3.52205 12.2592C3.30933 12.0472 3.02426 11.7543 2.73791 11.4331C2.45344 11.1141 2.15838 10.7568 1.93149 10.4173C1.81808 10.2475 1.71496 10.0723 1.63869 9.90094C1.56542 9.73631 1.5 9.53837 1.5 9.33335C1.5 9.15496 1.54462 8.957 1.60308 8.76887C1.66406 8.57266 1.75095 8.35337 1.8583 8.12187C2.07309 7.65865 2.38024 7.12398 2.758 6.59429C3.50144 5.55185 4.57711 4.44679 5.83695 4.0122C6.52874 3.77357 7.11205 3.64594 7.52646 3.5778C7.73374 3.54372 7.89901 3.52449 8.01477 3.5137C8.07266 3.5083 8.11821 3.50501 8.15047 3.50304C8.16661 3.50205 8.17942 3.50139 8.18881 3.50096L8.20029 3.50047L8.20408 3.50033L8.20547 3.50028L8.20605 3.50026L8.20631 3.50025C8.20643 3.50025 8.20654 3.50025 8.22222 4L8.20654 3.50025C8.34727 3.49583 8.48333 3.55095 8.58131 3.65207C8.67924 3.75314 8.73004 3.8908 8.72124 4.03126C8.72124 4.03132 8.72124 4.03138 8.72123 4.03144L8.72118 4.03236L8.72071 4.04128C8.72029 4.04981 8.71968 4.06343 8.71904 4.08166C8.71776 4.11816 8.71641 4.17298 8.71632 4.24243C8.71614 4.38175 8.72107 4.57772 8.74146 4.80142C8.78333 5.26092 8.88621 5.78588 9.10477 6.18328C9.24565 6.43942 9.5618 6.68525 10.0616 6.86789C10.5515 7.04688 11.1577 7.14195 11.7778 7.14195C12.3979 7.14195 13.0041 7.04688 13.4939 6.86789C13.9938 6.68525 14.3099 6.43942 14.4508 6.18328C14.6694 5.78588 14.7722 5.26092 14.8141 4.80142C14.8345 4.57772 14.8394 4.38175 14.8392 4.24243C14.8391 4.17298 14.8378 4.11816 14.8365 4.08166C14.8359 4.06343 14.8353 4.04981 14.8348 4.04128L14.8344 4.03236L14.8343 4.03144C14.8343 4.03138 14.8343 4.03131 14.8343 4.03125M7.77778 20.5L15.8366 4.06788C15.8364 4.06045 15.8361 4.0534 15.8359 4.04676C15.8351 4.02344 15.8343 4.00495 15.8336 3.99177L15.8328 3.97602L15.8325 3.97123L15.8324 3.96963L15.8324 3.96903L15.8324 3.96878C15.8324 3.96867 15.8323 3.96856 15.3333 4M7.77778 20.5H15.7778C16.0539 20.5 16.2778 20.2761 16.2778 20V10.3885M7.77778 20.5L16.2778 10.3885M14.8343 4.03125C14.8343 4.03134 14.8343 4.03144 15.3333 4M14.8343 4.03125C14.8253 3.8868 14.8793 3.74551 14.9823 3.64391C15.0855 3.54226 15.2276 3.49031 15.372 3.50149L15.3333 4M14.8343 4.03125L19.3333 12.2424M15.3333 4C15.372 3.50149 15.372 3.5015 15.3721 3.50151L15.3723 3.50152L15.3728 3.50156L15.374 3.50165L15.3773 3.50192L15.3878 3.50283L15.4239 3.50626C15.4546 3.50934 15.4985 3.51409 15.5546 3.52107C15.6667 3.53503 15.828 3.5579 16.0314 3.59413C16.4382 3.66655 17.0144 3.79247 17.7043 4.00752C19.025 4.41916 20.2133 5.51433 21.0527 6.55935C21.4784 7.08942 21.8305 7.62643 22.0788 8.09262C22.2028 8.32548 22.3044 8.54715 22.3762 8.74635C22.4444 8.93553 22.5 9.14256 22.5 9.33335C22.5 9.55837 22.4144 9.76842 22.3264 9.93318C22.2337 10.1069 22.1091 10.283 21.9734 10.4522C21.7016 10.7912 21.3485 11.1476 21.0081 11.4657C20.6653 11.786 20.3241 12.0782 20.0694 12.2897C19.9418 12.3957 19.8353 12.4819 19.7604 12.5419C19.723 12.5719 19.6934 12.5954 19.6729 12.6115L19.6493 12.63L19.643 12.635L19.6412 12.6364L19.6407 12.6368L19.6406 12.6369C19.6405 12.637 19.6405 12.637 19.3333 12.2424M19.3333 12.2424L19.6405 12.637C19.4563 12.7804 19.1974 12.7772 19.0167 12.6294L16.2778 10.3885M19.3333 12.2424L16.2778 10.3885" stroke="black" stroke-linejoin="round"/>
</svg>
