<svg width="24" height="24" viewBox="0 0 24 24" fill="none" xmlns="http://www.w3.org/2000/svg">
<path fill-rule="evenodd" clip-rule="evenodd" d="M14.5329 9.46704L7.71358 16.2869C7.53633 16.1842 7.36841 16.1189 7.21915 16.1096C5.92246 16.0163 5.41871 16.1656 4.70972 15.5592C3.94476 14.9061 4.00074 13.1615 4.00074 11.8834C4.00074 10.6052 3.94476 8.86063 4.70972 8.20757C5.41871 7.60115 5.92246 7.75975 7.21915 7.65713C8.51585 7.55451 11.2585 3.59882 13.3761 4.84897C14.2344 5.54868 14.4676 6.8548 14.5329 9.46704Z" stroke="white" stroke-width="1.5" stroke-linecap="round" stroke-linejoin="round"/>
<path d="M14.5329 13.9172C14.4956 16.7906 14.2717 18.1901 13.3761 18.9178C12.3966 19.4962 11.2865 18.9644 10.2417 18.2087" stroke="white" stroke-width="1.5" stroke-linecap="round" stroke-linejoin="round"/>
<path d="M4.00121 20L7.71405 16.2869L14.5334 9.46706L20 4" stroke="white" stroke-width="1.5" stroke-linecap="round" stroke-linejoin="round"/>
</svg>
